<?xml version="1.0" encoding="UTF-8"?>
<svg id="SVGRoot" width="32" height="32" version="1.1" viewBox="0 0 32 32" xmlns="http://www.w3.org/2000/svg" xmlns:cc="http://creativecommons.org/ns#" xmlns:dc="http://purl.org/dc/elements/1.1/" xmlns:rdf="http://www.w3.org/1999/02/22-rdf-syntax-ns#">
 <metadata>
  <rdf:RDF>
   <cc:Work rdf:about="">
    <dc:format>image/svg+xml</dc:format>
    <dc:type rdf:resource="http://purl.org/dc/dcmitype/StillImage"/>
    <dc:title/>
   </cc:Work>
  </rdf:RDF>
 </metadata>
 <g>
<!-- Bottom left orange -->
  <path d="m12.501 17.68a0.48543 0.50248 0 0 0-0.48544 0.50248 0.48543 0.50248 0 0 0 0.34587 0.48128v0.52106l0.27911 0.33258v-0.8467l-0.0046-0.0056a0.48543 0.50248 0 0 0 0.35049-0.48263 0.48543 0.50248 0 0 0-0.48544-0.50248z" fill="#f60" stroke-width=".011511"/>
  
 
  <g style="mix-blend-mode:normal">
<!-- Top red -->
   <path d="m16.109 11.243a0.48543 0.50248 0 0 0-0.4684 0.37057h-1.7303v3e-4l-6e-4 -3e-4 -0.0352 0.01926-0.01086 0.0059-2.58e-4 -1.95e-4 -0.01212 7e-3 -0.01194 0.0065 6e-4 2.4e-5 -0.08515 0.04904-0.10871 0.06262-0.10512 0.06888-0.1051 0.06886 0.30851-7.2e-5 0.32986 0.34147v0.68496a0.31751 0.32866 0 0 0-0.18304 0.29773 0.31751 0.32866 0 0 0 0.31752 0.32864 0.31751 0.32866 0 0 0 0.3175-0.32864 0.31751 0.32866 0 0 0-0.17284-0.29258v-0.80974l-0.21325-0.22073h1.5078a0.48543 0.50248 0 0 0 0.4611 0.34545 0.48543 0.50248 0 0 0 0.48544-0.50248 0.48543 0.50248 0 0 0-0.48544-0.50248z" fill="#ff3500" stroke-width=".010306"/>
  </g>

  <g>
<!-- Middle orange wires -->
   <path d="m17.574 11.969-1.6123 1.6689v1.8975a0.48543 0.50248 0 0 0-0.10606 0.04785l-0.50519-0.52293v-0.77786l-0.49039-0.50763h-0.9667a0.31751 0.32866 0 0 0-0.28953-0.1938 0.31751 0.32866 0 0 0-0.3175 0.32867 0.31751 0.32866 0 0 0 0.3175 0.32865 0.31751 0.32866 0 0 0 0.28045-0.17458h0.86017l0.32689 0.33836v0.48895h-0.5147a0.31751 0.32866 0 0 0-0.29204-0.19972 0.31751 0.32866 0 0 0-0.3175 0.32867 0.31751 0.32866 0 0 0 0.3175 0.32865 0.31751 0.32866 0 0 0 0.27737-0.16868h0.52936l0.59424 0.6151a0.48543 0.50248 0 0 0-0.03588 0.10223h-0.79641l-0.9644 0.99823v1.8538l-0.63176 0.65392v0.65326l0.11206 0.08185 0.02613 0.01908-3e-4 2.19e-4 0.04073 0.02928 0.04559 0.0333 4.8e-5 -6e-4 0.05495 0.03949-3e-4 -0.13478-1.65e-4 -0.06791h6e-4v-0.53359l0.63176-0.65394v-1.8538l0.80087-0.82899h0.69542a0.48543 0.50248 0 0 0 0.02949 0.06856l-0.5086 0.52645h-0.07729a0.31751 0.32866 0 0 0-0.29129-0.19788 0.31751 0.32866 0 0 0-0.3175 0.32864 0.31751 0.32866 0 0 0 0.3175 0.32865 0.31751 0.32866 0 0 0 0.27834-0.17048h0.20585l0.59035-0.61107a0.48543 0.50248 0 0 0 0.09052 0.03881v1.751l-0.32691 0.33838h-0.46228l-0.32691-0.33838v-0.19984a0.31751 0.32866 0 0 0 0.17416-0.29324 0.31751 0.32866 0 0 0-0.3175-0.32867 0.31751 0.32866 0 0 0-0.31752 0.32867 0.31751 0.32866 0 0 0 0.18173 0.2971v0.31568l0.49041 0.5076h0.69355l0.49039-0.5076v-1.8707a0.48543 0.50248 0 0 0 0.0745-0.03026l0.48821 0.50535v1.7341l-0.18642 0.19297a0.31751 0.32866 0 0 0-0.12134-0.02496 0.31751 0.32866 0 0 0-0.31752 0.32865 0.31751 0.32866 0 0 0 0.31752 0.32867 0.31751 0.32866 0 0 0 0.3175-0.32867 0.31751 0.32866 0 0 0-0.01119-0.08654l0.28057-0.29044v-1.9734l-0.56268-0.58244a0.48543 0.50248 0 0 0 0.03827-0.08465h0.60945l0.22134 0.22911a0.31751 0.32866 0 0 0-0.0094 0.07918 0.31751 0.32866 0 0 0 0.31752 0.32867 0.31751 0.32866 0 0 0 0.3175-0.32867 0.31751 0.32866 0 0 0-0.3175-0.32865 0.31751 0.32866 0 0 0-0.12762 0.02772l-0.14668-0.15183 0.76274-0.78952v-0.84184a0.31751 0.32866 0 0 0 0.16373-0.28753 0.31751 0.32866 0 0 0-0.3175-0.32867 0.31751 0.32866 0 0 0-0.31752 0.32867 0.31751 0.32866 0 0 0 0.19217 0.30195v0.70774l-0.73881 0.76474h-0.59488a0.48543 0.50248 0 0 0-0.04409-0.11882l0.56606-0.58596v-1.17l0.24117-0.24961a0.31751 0.32866 0 0 0 0.11235 0.02124 0.31751 0.32866 0 0 0 0.31752-0.32865 0.31751 0.32866 0 0 0-0.31752-0.32867 0.31751 0.32866 0 0 0-0.3175 0.32867 0.31751 0.32866 0 0 0 0.01404 0.09662l-0.32916 0.34072v1.17l-0.48431 0.50131a0.48543 0.50248 0 0 0-0.09052-0.03881v-1.7778l1.4488-1.4996h1.168v-3e-4l0.17183 2.7e-5 0.18772 4.8e-5 -0.0466-0.03957-0.04618-0.03925 1.2e-4 -1.71e-4h-1.68e-4l1.68e-4 -2.4e-5 -0.13342-0.10483-0.13344-0.10483z" fill="#f60" stroke-width=".027209"/>
  </g>

  <g>
<!-- Left red -->
   <path d="m12.473 13.353a0.48543 0.50248 0 0 0-0.48544 0.50248 0.48543 0.50248 0 0 0 0.48544 0.50248 0.48543 0.50248 0 0 0 0.19293-0.04139l0.23591 0.24422v1.6556l-0.32689 0.33838h-0.92953l-0.12061-0.12484-1.89e-4 1.95e-4 -0.11385-0.1202-0.11404-0.1204 0.0037 0.018 0.01308 0.20708 0.01386 0.21962 0.20236 0.20946h1.1608l0.49041-0.50763v-1.8949l-0.30106-0.31165a0.48543 0.50248 0 0 0 0.07854-0.274 0.48543 0.50248 0 0 0-0.48544-0.50248zm-0.7301 0.59985-0.0261 0.06104-0.01947 0.04556 2.4e-5 -0.0015-0.0047 0.01254-0.0018 0.0044h2.13e-4l-0.05798 0.15299-0.06441 0.16995-0.05237 0.17478-0.0524 0.17478v0.04637l-0.01794 0.01818-0.0421 0.20873-0.03855 0.19115-2.58e-4 3e-4v4.8e-5l-2.58e-4 -4.8e-5 -0.0012 0.0084-0.0018 0.0089 6e-4 -6e-4 -0.0018 0.01194-0.0012 0.0085-1.89e-4 -1.95e-4 -0.0012 0.0091-0.0015 0.01116 2.58e-4 -7.5e-5 -0.01326 0.10699-0.01578 0.1272 0.06849-0.0012 0.06716-0.0012h0.38431a0.31751 0.32866 0 0 0 0.28941 0.19348 0.31751 0.32866 0 0 0 0.3175-0.32865 0.31751 0.32866 0 0 0-0.3175-0.32867 0.31751 0.32866 0 0 0-0.28061 0.1749h-0.40291l0.12941-0.13371 0.16019-0.16555v-0.1655h-6e-4l4.8e-5 -0.10641 4.5e-5 -0.1245-4.5e-5 9.9e-5 2.4e-5 -0.06354 3e-4 3e-4 4.8e-5 -0.1245 4.8e-5 -0.10104 1.86e-4 2.4e-4 4.8e-5 -0.1245 4.5e-5 -0.1245-6e-4 0.0018z" fill="#ff3500" stroke-width=".010599"/>
  </g>

  <g>
<!-- Top right blue -->
   <!-- <path d="m19.727 13.36a0.48543 0.50248 0 0 0-0.48544 0.50248 0.48543 0.50248 0 0 0 0.36082 0.48562v0.65644l0.14036 0.14432-0.32339 0.0012a0.31751 0.32866 0 0 0-0.2892-0.19302 0.31751 0.32866 0 0 0-0.3175 0.32865 0.31751 0.32866 0 0 0 0.3175 0.32867 0.31751 0.32866 0 0 0 0.28085-0.17534l0.61179-0.0021 0.11524 0.11848h0.7033v1.44e-4l0.04449-6e-4 -0.03954-0.2882h-0.59323l-0.37159-0.38206v-0.54549a0.48543 0.50248 0 0 0 0.3309-0.47634 0.48543 0.50248 0 0 0-0.48541-0.50248z" fill="#04a" stroke-width=".012223"/> -->
  </g>

  <g>
<!-- Bottom blue -->
   <path d="m18.51 16.375-0.9097 0.94161v2.487l-0.3694 0.38492-0.67482 0.0018a0.48543 0.50248 0 0 0-0.46338-0.35276 0.48543 0.50248 0 0 0-0.48544 0.50248 0.48543 0.50248 0 0 0 0.48544 0.50248 0.48543 0.50248 0 0 0 0.46643-0.3633l0.78822-0.0021 0.53209-0.55446v-1.077l0.16826 0.17303a0.31751 0.32866 0 0 0-7e-3 0.06881 0.31751 0.32866 0 0 0 0.31752 0.32864 0.31751 0.32866 0 0 0 0.3175-0.32864 0.31751 0.32866 0 0 0-0.3175-0.32865 0.31751 0.32866 0 0 0-0.13621 0.03177l-0.34254-0.35221v-1.0022l0.74618-0.7724h2.2461v-0.0049l0.01233-0.14014 0.01266-0.14386h-0.02496zm1.2126 1.3307a0.48543 0.50248 0 0 0-0.48544 0.50248 0.48543 0.50248 0 0 0 0.48544 0.50248 0.48543 0.50248 0 0 0 0.19715-0.04331l0.12242 0.12428 0.0074 0.0078 0.01818 0.01905 1.2e-4 -2.19e-4 0.0024 0.0027 0.01818 0.01905 0.01689-0.02964 0.06758-0.1109 0.06758-0.11092-0.10857-0.11022a0.48543 0.50248 0 0 0 0.07603-0.26999 0.48543 0.50248 0 0 0-0.48544-0.50248zm-0.78968 1.6572a0.31751 0.32866 0 0 0-0.31731 0.32867 0.31751 0.32866 0 0 0 0.31753 0.32865 0.31751 0.32866 0 0 0 0.27406-0.16276l0.11155-0.10366 0.09865-0.09169 2.34e-4 9e-4 0.01224-0.01242 0.0024-0.0024h-2.1e-4l0.03097-0.03148 0.04519-0.04595 2.34e-4 -1.95e-4v-5.1e-5l-0.11554-4.8e-5v7.5e-5h-0.03076l-0.13391-5.1e-5a0.31751 0.32866 0 0 0-0.29518-0.20767 0.31751 0.32866 0 0 0-1.2e-4 0z" fill="#04a" stroke-width=".0036299"/>
  </g>
 </g>

 <g fill="#fff" stroke-width=".0081028">
  <ellipse cx="16.095" cy="16.01" rx=".35801" ry=".37058"/>
  <ellipse cx="16.107" cy="11.739" rx=".35801" ry=".37058"/>
  <ellipse cx="16.095" cy="20.344" rx=".35801" ry=".37058"/>
  <ellipse cx="19.724" cy="13.862" rx=".35801" ry=".37058"/>
  <ellipse cx="19.724" cy="18.208" rx=".35801" ry=".37058"/>
  <ellipse cx="12.491" cy="18.183" rx=".35801" ry=".37058"/>
  <ellipse cx="12.479" cy="13.849" rx=".35801" ry=".37058"/>
 </g>
</svg>
