<?xml version="1.0" encoding="UTF-8"?>
<svg id="SVGRoot" width="800px" height="800px" version="1.1" viewBox="0 0 800 800" xmlns="http://www.w3.org/2000/svg" xmlns:cc="http://creativecommons.org/ns#" xmlns:dc="http://purl.org/dc/elements/1.1/" xmlns:rdf="http://www.w3.org/1999/02/22-rdf-syntax-ns#">
 <metadata>
  <rdf:RDF>
   <cc:Work rdf:about="">
    <dc:format>image/svg+xml</dc:format>
    <dc:type rdf:resource="http://purl.org/dc/dcmitype/StillImage"/>
    <dc:title/>
   </cc:Work>
  </rdf:RDF>
 </metadata>
 <g>
 <!-- Bottom left orange -->
  <path d="m100.39 531.79a40.406 40.406 0 0 0-40.406 40.406 40.406 40.406 0 0 0 28.789 38.701v41.9l23.232 26.744v-68.086l-0.38671-0.44531a40.406 40.406 0 0 0 29.178-38.814 40.406 40.406 0 0 0-40.406-40.406z" fill="#f60" stroke-width=".94173"/>
  
  <g style="mix-blend-mode:normal">
  <!-- Top red -->
   <path d="m400.66 14.147a40.406 40.406 0 0 0-38.988 29.799h-144.02v0.03125l-0.043-0.03125-2.9297 1.5488-0.9043 0.47852-0.0215-0.01563-1.0098 0.5625-0.99414 0.52539 0.043 2e-3 -7.0879 3.9434-9.0488 5.0352-8.75 5.5391-8.748 5.5371 25.68-0.0059 27.457 27.459v55.08a26.429 26.429 0 0 0-15.236 23.941 26.429 26.429 0 0 0 26.43 26.428 26.429 26.429 0 0 0 26.428-26.428 26.429 26.429 0 0 0-14.387-23.527v-65.119l-17.75-17.75h125.5a40.406 40.406 0 0 0 38.381 27.779 40.406 40.406 0 0 0 40.406-40.406 40.406 40.406 0 0 0-40.406-40.406z" fill="#ff3500" stroke-width=".84313"/>
  </g>

  <g>
   <!-- <path d="m522.6 72.512-134.2 134.2v152.59a40.406 40.406 0 0 0-8.8281 3.8477l-42.051-42.051v-62.551l-40.818-40.82h-80.465a26.429 26.429 0 0 0-24.1-15.584 26.429 26.429 0 0 0-26.428 26.43 26.429 26.429 0 0 0 26.428 26.428 26.429 26.429 0 0 0 23.344-14.039h71.598l27.209 27.209v39.318h-42.842a26.429 26.429 0 0 0-24.309-16.061 26.429 26.429 0 0 0-26.428 26.43 26.429 26.429 0 0 0 26.428 26.428 26.429 26.429 0 0 0 23.088-13.564h44.062l49.463 49.463a40.406 40.406 0 0 0-2.9863 8.2207h-66.291l-80.273 80.271v149.07l-52.586 52.584v52.531l9.3281 6.582 2.1738 1.5332-0.0312 0.0176 3.3906 2.3535 3.7949 2.6777 4e-3 -0.041 4.5742 3.1758-0.0254-10.838-0.0137-5.4609h0.0391v-42.908l52.586-52.586v-149.07l66.662-66.662h57.885a40.406 40.406 0 0 0 2.4551 5.5137l-42.334 42.334h-6.4336a26.429 26.429 0 0 0-24.246-15.912 26.429 26.429 0 0 0-26.428 26.428 26.429 26.429 0 0 0 26.428 26.428 26.429 26.429 0 0 0 23.168-13.709h17.135l49.139-49.139a40.406 40.406 0 0 0 7.5352 3.1211v140.81l-27.211 27.211h-38.479l-27.211-27.211v-16.07a26.429 26.429 0 0 0 14.496-23.58 26.429 26.429 0 0 0-26.428-26.43 26.429 26.429 0 0 0-26.43 26.43 26.429 26.429 0 0 0 15.127 23.891v25.385l40.82 40.818h57.729l40.818-40.818v-150.43a40.406 40.406 0 0 0 6.2012-2.4336l40.637 40.637v139.44l-15.518 15.518a26.429 26.429 0 0 0-10.1-2.0059 26.429 26.429 0 0 0-26.43 26.428 26.429 26.429 0 0 0 26.43 26.43 26.429 26.429 0 0 0 26.428-26.43 26.429 26.429 0 0 0-0.93164-6.959l23.353-23.355v-158.69l-46.836-46.836a40.406 40.406 0 0 0 3.1856-6.8066h50.729l18.424 18.424a26.429 26.429 0 0 0-0.78125 6.3672 26.429 26.429 0 0 0 26.43 26.43 26.429 26.429 0 0 0 26.428-26.43 26.429 26.429 0 0 0-26.428-26.428 26.429 26.429 0 0 0-10.623 2.2285l-12.209-12.209 63.488-63.488v-67.695a26.429 26.429 0 0 0 13.629-23.121 26.429 26.429 0 0 0-26.428-26.43 26.429 26.429 0 0 0-26.43 26.43 26.429 26.429 0 0 0 15.996 24.281v56.912l-61.496 61.496h-49.516a40.406 40.406 0 0 0-3.6699-9.5547l47.117-47.119v-94.082l20.074-20.072a26.429 26.429 0 0 0 9.3516 1.709 26.429 26.429 0 0 0 26.43-26.428 26.429 26.429 0 0 0-26.43-26.43 26.429 26.429 0 0 0-26.428 26.43 26.429 26.429 0 0 0 1.168 7.7695l-27.398 27.398v94.082l-40.312 40.312a40.406 40.406 0 0 0-7.5352-3.1211v-142.96l120.59-120.59h97.223v-0.02734l14.303 2e-3 15.625 0.0039-3.8789-3.1816-3.8437-3.1562 0.01-0.01367h-0.014l0.014-2e-3 -11.106-8.4297-11.107-8.4297z" fill="#f60" stroke-width="2.226"/> -->
  </g>

  <g>
   <path d="m97.984 183.85a40.406 40.406 0 0 0-40.406 40.406 40.406 40.406 0 0 0 40.406 40.406 40.406 40.406 0 0 0 16.059-3.3281l19.637 19.639v133.13l-27.209 27.211h-77.371l-10.039-10.039-0.01563 0.0156-18.969-19.348 0.31055 1.4473 1.0898 16.652 1.1543 17.66 16.844 16.844h96.619l40.82-40.82v-152.38l-25.061-25.061a40.406 40.406 0 0 0 6.5371-22.033 40.406 40.406 0 0 0-40.406-40.406zm-60.771 48.236-2.1738 4.9082-1.6211 3.6641 2e-3 -0.12109-0.39453 1.0078-0.1582 0.35547h0.01758l-4.8262 12.303-5.3613 13.666-4.3594 14.055-4.3613 14.055v3.7285l-1.4941 1.4629-3.5039 16.785-3.209 15.371-0.02148 0.0254v4e-3l-0.02148-4e-3 -0.10352 0.67578-0.14844 0.71484 0.04883-0.0527-0.14648 0.96094-0.10352 0.68554-0.01563-0.0156-0.09375 0.73437-0.13672 0.89649 0.021484-6e-3 -1.1035 8.6035-1.3145 10.229 5.7012-0.0957 5.5898-0.0957h31.988a26.429 26.429 0 0 0 24.09 15.559 26.429 26.429 0 0 0 26.428-26.428 26.429 26.429 0 0 0-26.428-26.43 26.429 26.429 0 0 0-23.357 14.064h-33.537l10.771-10.752 13.334-13.312v-13.309h-0.0625l0.0039-8.5566 0.0039-10.012-0.0039 8e-3 2e-3 -5.1094 0.02539 0.0293 0.0039-10.012 0.0039-8.125 0.01563 0.0195 0.0078-20.023-0.05469 0.14453z" fill="#ff3500" stroke-width=".86716"/>
  </g>

  <g>
   <path d="m701.82 184.44a40.406 40.406 0 0 0-40.406 40.406 40.406 40.406 0 0 0 30.033 39.051v52.787l11.684 11.605-26.918 0.0899a26.429 26.429 0 0 0-24.072-15.521 26.429 26.429 0 0 0-26.428 26.428 26.429 26.429 0 0 0 26.428 26.43 26.429 26.429 0 0 0 23.377-14.1l50.924-0.16992 9.5918 9.5274h58.541v0.0117l3.7051-0.0704-3.2891-23.176h-49.379l-30.93-30.723v-43.865a40.406 40.406 0 0 0 27.543-38.305 40.406 40.406 0 0 0-40.404-40.406z" fill="#04a"/>
  </g>

  <g>
   <path d="m600.49 426.87-75.721 75.719v199.99l-30.748 30.953-56.17 0.14258a40.406 40.406 0 0 0-38.57-28.367 40.406 40.406 0 0 0-40.406 40.406 40.406 40.406 0 0 0 40.406 40.406 40.406 40.406 0 0 0 38.824-29.215l65.609-0.16211 44.289-44.586v-86.605l14.006 13.914a26.429 26.429 0 0 0-0.58594 5.5332 26.429 26.429 0 0 0 26.43 26.428 26.429 26.429 0 0 0 26.428-26.428 26.429 26.429 0 0 0-26.428-26.428 26.429 26.429 0 0 0-11.338 2.5547l-28.512-28.322v-80.592l62.109-62.111h186.96v-0.39453l1.0254-11.27 1.0527-11.568h-2.0781zm100.93 107.01a40.406 40.406 0 0 0-40.406 40.406 40.406 40.406 0 0 0 40.406 40.406 40.406 40.406 0 0 0 16.41-3.4824l10.189 9.9941 0.61719 0.625 1.5137 1.5313 0.01-0.0176 0.20508 0.20703 1.5137 1.5312 1.4062-2.3828 5.625-8.918 5.625-8.9199-9.0371-8.8633a40.406 40.406 0 0 0 6.3281-21.711 40.406 40.406 0 0 0-40.406-40.406zm-65.73 133.26a26.429 26.429 0 0 0-26.412 26.43 26.429 26.429 0 0 0 26.43 26.428 26.429 26.429 0 0 0 22.812-13.088l9.2852-8.3359 8.2109-7.373 0.0195 0.0684 1.0176-1 0.20312-0.18164h-0.0176l2.5781-2.5312 3.7617-3.6953 0.0195-0.0156v-4e-3l-9.6172-4e-3v6e-3h-2.5606l-11.146-4e-3a26.429 26.429 0 0 0-24.57-16.699 26.429 26.429 0 0 0-0.01 0z" fill="#04a" stroke-width=".29697"/>
  </g>

 </g>
 <g fill="#fff" stroke-width=".66292">
  <circle cx="399.52" cy="397.5" r="29.8"/>
  <circle cx="400.53" cy="54.043" r="29.8"/>
  <circle cx="399.52" cy="746" r="29.8"/>
  <circle cx="701.55" cy="224.76" r="29.8"/>
  <circle cx="701.55" cy="574.27" r="29.8"/>
  <circle cx="99.5" cy="572.25" r="29.8"/>
  <circle cx="98.49" cy="223.75" r="29.8"/>
 </g>
</svg>
